<?xml version="1.0" encoding="UTF-8"?>
<svg version="1.1" xmlns="http://www.w3.org/2000/svg" width="1080" height="1080">
<path d="M0 0 C356.4 0 712.8 0 1080 0 C1080 356.4 1080 712.8 1080 1080 C723.6 1080 367.2 1080 0 1080 C0 723.6 0 367.2 0 0 Z " fill="#000000" transform="translate(0,0)"/>
<path d="M0 0 C29.37 0 58.74 0 89 0 C90.98 4.95 92.96 9.9 95 15 C96.84590131 19.06193662 96.84590131 19.06193662 98.71484375 23.11328125 C100.79519439 27.78616612 102.623688 32.55582695 104.47265625 37.32421875 C105.5593242 39.93944776 106.67641681 42.38653408 107.96484375 44.89453125 C110.50280082 49.87350326 112.40147041 55.06055554 114.35546875 60.2890625 C115.76483514 64.00060658 117.2456242 67.58484688 119.0625 71.1171875 C121.46024336 75.78100622 123.01708664 80.65994527 124.65625 85.6328125 C125.86714697 89.03052682 125.86714697 89.03052682 127.9375 91.8046875 C131.10850731 96.71734655 132.57256038 102.12027879 134.35546875 107.65625 C136.03828305 112.71230746 138.01456591 116.55629618 141 121 C142.48513733 124.40307783 143.74089811 127.88295959 145 131.375 C147.10135386 137.1537231 149.27500892 142.72027371 152.10693359 148.18115234 C153.44619384 150.90873268 154.36614276 153.74119139 155.3125 156.625 C157.48954235 162.90158055 160.25190922 168.65024646 163.30078125 174.54296875 C165.43416077 178.88329259 167.12877966 183.31870989 168.76171875 187.8671875 C169.70539557 190.25466008 170.69999677 192.43703223 171.8671875 194.7109375 C174.36052275 199.60222499 176.3899967 204.65952703 178.4375 209.75 C179.23413479 211.71363914 180.03100758 213.67718173 180.828125 215.640625 C181.20517578 216.57197266 181.58222656 217.50332031 181.97070312 218.46289062 C183.94299323 223.32437991 185.96049927 228.16638327 188 233 C188.46921875 234.11246094 188.9384375 235.22492188 189.421875 236.37109375 C191.87705961 242.14837093 194.39284569 247.88092801 197.0625 253.5625 C199.55444068 258.89772548 201.70885103 264.30121222 203.7265625 269.83203125 C204.70327058 272.26181729 205.73744909 274.50342743 206.9296875 276.82421875 C209.47952535 281.82793282 211.39186457 287.03485222 213.35546875 292.2890625 C214.75441385 295.97316226 216.21992639 299.52912811 218.03125 303.03125 C220.44754947 307.73348982 222.05099507 312.63734228 223.7109375 317.64453125 C225.41986471 322.6702473 227.56361147 327.28982228 230 332 C230.70165825 333.51435332 231.39246488 335.03389174 232.0625 336.5625 C232.55943359 337.69171875 232.55943359 337.69171875 233.06640625 338.84375 C233.88953909 340.74487689 234.69607259 342.65317241 235.5 344.5625 C236.56044227 346.9926802 237.65369487 349.29546293 238.87109375 351.640625 C241.4636577 356.79552411 243.43187165 362.15159994 245.44335938 367.55273438 C246.99581971 371.64747875 248.69218684 375.2626248 251 379 C251.69051659 380.73285531 252.33601464 382.48426614 252.9375 384.25 C255.0019705 390.09933308 257.44366398 395.69067901 260.08203125 401.30078125 C262.93375779 407.43342393 265.50096612 413.65504506 268 419.9375 C268.34901367 420.81486816 268.69802734 421.69223633 269.05761719 422.59619141 C269.7365061 424.30429126 270.41522337 426.01245933 271.09375 427.72070312 C274.16704567 435.45030667 277.46303999 443.00379399 281.0625 450.5 C283.82891957 456.26258079 286.06040113 461.94281863 287.94921875 468.05859375 C289.16312952 471.45664136 290.71687033 474.54572763 292.375 477.75 C295.04645761 482.92594912 297.33623306 488.1065742 299.375 493.5625 C299.62556152 494.22926758 299.87612305 494.89603516 300.13427734 495.58300781 C301.3919868 499.02617343 302.40270674 502.38151409 303 506 C303.66 506 304.32 506 305 506 C305.27972656 506.84820313 305.55945313 507.69640625 305.84765625 508.5703125 C307.94182979 514.69795856 310.13137938 520.45908434 313.1875 526.1875 C317.43307672 534.33416586 320.40304704 542.92797847 323.44799805 551.58276367 C325.48414414 557.28617309 327.45723217 562.10330816 331 567 C332.265625 569.88671875 332.265625 569.88671875 333.25 572.6875 C333.58515625 573.61949219 333.9203125 574.55148437 334.265625 575.51171875 C335 578 335 578 335 581 C335.66 581 336.32 581 337 581 C337.21615967 581.54825439 337.43231934 582.09650879 337.6550293 582.66137695 C343.07331887 596.48260001 343.07331887 596.48260001 349.1875 610.00390625 C350 612 350 612 350 615 C320.96 615 291.92 615 262 615 C257.50575469 606.01150937 257.50575469 606.01150937 256.21875 602.16015625 C255.79142578 600.9062207 255.79142578 600.9062207 255.35546875 599.62695312 C255.07316406 598.78068359 254.79085937 597.93441406 254.5 597.0625 C252.57158784 591.3080829 250.5122773 585.72148307 247.99072266 580.19897461 C246.04150221 575.87255061 244.31538034 571.44956715 242.55664062 567.04296875 C242.26853516 566.33269531 241.98042969 565.62242187 241.68359375 564.890625 C241.43150146 564.26188477 241.17940918 563.63314453 240.91967773 562.98535156 C239.99144104 560.88128274 239.99144104 560.88128274 238.51586914 558.57714844 C237.02292673 556.03897803 236.02799953 553.65132912 235.0625 550.875 C234.72476562 549.92109375 234.38703125 548.9671875 234.0390625 547.984375 C233.34635417 545.99479167 232.65364583 544.00520833 231.9609375 542.015625 C231.62320312 541.06171875 231.28546875 540.1078125 230.9375 539.125 C230.48697266 537.82949219 230.48697266 537.82949219 230.02734375 536.5078125 C228.92448617 533.81566586 227.50786511 531.48369002 226 529 C225.18798828 527.04638672 225.18798828 527.04638672 224.5703125 525.1796875 C224.33183594 524.4784375 224.09335937 523.7771875 223.84765625 523.0546875 C223.37366007 521.62501255 222.89970048 520.19532546 222.42578125 518.765625 C221.02891477 514.65719417 219.45443346 510.72191634 217.625 506.78515625 C214.18778006 499.37119031 211.41533624 491.71400683 208.57421875 484.05664062 C208.15527344 482.94611328 207.73632812 481.83558594 207.3046875 480.69140625 C206.93327637 479.69310791 206.56186523 478.69480957 206.17919922 477.66625977 C205.04122292 475.09320819 203.71193234 473.21173251 202 471 C201.14098142 468.66956573 200.35646006 466.31106335 199.625 463.9375 C197.54804993 457.2050734 194.99065735 451.57944617 192 445 C189.03 437.41 186.06 429.82 183 422 C116.01 421.67 49.02 421.34 -20 421 C-18.80374783 415.61686525 -17.65327778 410.48870594 -16.0625 405.25 C-15.74410156 404.18265625 -15.42570313 403.1153125 -15.09765625 402.015625 C-14 399 -14 399 -12.55859375 396.75390625 C-10.22955124 392.63868075 -9.2188904 388.23611963 -8 383.6875 C-6.27234329 377.32126499 -4.41888936 371.14081137 -2 365 C-1.34 365 -0.68 365 0 365 C0.33 362.36 0.66 359.72 1 357 C52.15 357 103.3 357 156 357 C154.35 353.37 152.7 349.74 151 346 C148.82277377 341.05937125 146.88660601 336.05635248 145 331 C144.4769771 329.60791707 143.95354385 328.21598825 143.4296875 326.82421875 C142.91145833 325.4453125 142.39322917 324.06640625 141.875 322.6875 C141.61074219 321.98560547 141.34648438 321.28371094 141.07421875 320.56054688 C140.00685531 317.71875945 138.96005281 314.88015844 138 312 C137.34 311.67 136.68 311.34 136 311 C135.19384766 309.17749023 135.19384766 309.17749023 134.4140625 306.80859375 C134.12273437 305.94556641 133.83140625 305.08253906 133.53125 304.19335938 C133.08265625 302.82920898 133.08265625 302.82920898 132.625 301.4375 C130.73190037 295.70375355 128.74853503 290.26558665 125.95068359 284.90991211 C124.36661877 281.7275446 123.19889379 278.40466077 122 275.0625 C120.17490348 270.08511958 118.27499198 265.20349501 116.0546875 260.38671875 C114.65142447 257.2111865 113.39481301 253.98044645 112.125 250.75 C110.19006684 245.83772683 108.1276114 241.0282666 105.875 236.25 C103.60472331 231.42566204 101.69103031 226.58007003 99.9296875 221.55078125 C98.76982002 218.36845576 97.39779133 215.31202178 95.99609375 212.23046875 C93.72437356 207.14359726 91.72418431 201.94118415 89.77734375 196.72265625 C87.29484037 189.87408738 87.29484037 189.87408738 83.9375 183.4375 C81.67834529 179.4293223 80.39447777 175.42005115 78.99609375 171.05078125 C77.00190473 164.94308859 74.62373459 159.11880867 71.625 153.4375 C68.93909714 148.22271629 67.06992141 142.79691611 65.23095703 137.23999023 C63.78604811 132.94487061 62.06000265 128.98416898 59.97924805 124.95996094 C58.43239155 121.86393402 57.18762517 118.6622164 55.9375 115.4375 C54.03898913 110.58798815 52.06127071 105.78300026 50 101 C48.94132895 98.48594527 47.90412679 95.96377356 46.875 93.4375 C46.61074219 92.80392578 46.34648438 92.17035156 46.07421875 91.51757812 C44.52130997 87.69048568 43.51764824 84.09699645 43 80 C39.74300423 82.17133051 39.50745334 82.63194883 38.38671875 86.1484375 C38.11158447 86.98238037 37.8364502 87.81632324 37.55297852 88.67553711 C37.26737061 89.56635986 36.9817627 90.45718262 36.6875 91.375 C34.77998431 97.08447156 32.90094096 102.60960672 30.0625 107.9375 C26.29718065 115.01509226 23.67761971 122.5157651 20.87890625 130.01171875 C19.45755404 133.81544705 17.96494156 137.57537048 16.375 141.3125 C13.34042075 148.44842186 10.68567956 155.72743816 8 163 C7.34 163 6.68 163 6 163 C5.85498047 163.94939453 5.85498047 163.94939453 5.70703125 164.91796875 C4.72714306 169.18941505 3.21096692 173.20840147 1.6875 177.3125 C1.24374023 178.53743164 1.24374023 178.53743164 0.79101562 179.78710938 C-0.62642895 183.62921076 -2.11276681 187.33225315 -4.0078125 190.96484375 C-6.80352802 196.37819943 -8.54548352 202.15610506 -10.44335938 207.9296875 C-10.73146484 208.78304687 -11.01957031 209.63640625 -11.31640625 210.515625 C-11.56849854 211.28165039 -11.82059082 212.04767578 -12.08032227 212.83691406 C-13.09095252 215.21392072 -14.44795137 216.9447481 -16 219 C-16.95264364 221.06850417 -16.95264364 221.06850417 -17.68359375 223.265625 C-17.97169922 224.07386719 -18.25980469 224.88210938 -18.55664062 225.71484375 C-18.99266602 226.96974609 -18.99266602 226.96974609 -19.4375 228.25 C-21.0800769 232.95256847 -22.69603705 237.55770158 -25.00390625 241.98046875 C-27.76556838 247.30657902 -29.48728499 252.9804244 -31.35546875 258.66601562 C-32.64846238 262.49526599 -33.92902042 266.094956 -36.00390625 269.57421875 C-38.29862443 273.51251198 -39.85655248 277.48910388 -41.4375 281.75 C-43.34462533 286.78041803 -45.26814196 291.75504004 -47.5625 296.625 C-49.97246837 301.75513069 -51.9363017 307.01614969 -53.85766602 312.34423828 C-54.9389123 315.31275754 -56.08094251 318.16167367 -57.49609375 320.98828125 C-59.58290223 325.16731849 -61.09179446 329.50884811 -62.66210938 333.90234375 C-63.9196162 337.3463862 -65.27431472 340.63482929 -66.95703125 343.89453125 C-69.26928293 348.39927436 -71.00228475 353.06590969 -72.75 357.8125 C-75.36242229 364.80458952 -78.10359708 371.71007603 -81.0625 378.5625 C-84.30970232 386.08862178 -87.0994346 393.71585414 -89.65454102 401.50415039 C-91.69205044 407.59312364 -91.69205044 407.59312364 -93.5078125 409.9921875 C-95.97551979 413.3126104 -96.85750495 417.26433196 -98.0625 421.1875 C-98.56727555 422.82897414 -99.07866176 424.46843472 -99.59765625 426.10546875 C-99.81945557 426.82887451 -100.04125488 427.55228027 -100.26977539 428.29760742 C-101 430 -101 430 -103 431 C-103.88503929 432.80489748 -103.88503929 432.80489748 -104.62109375 435.0078125 C-104.91693359 435.83023437 -105.21277344 436.65265625 -105.51757812 437.5 C-105.82115234 438.36625 -106.12472656 439.2325 -106.4375 440.125 C-108.46733683 445.83473458 -110.55594766 451.45388123 -113 457 C-115.98494847 464.0607419 -118.87029272 471.15795316 -121.6940918 478.28442383 C-123.42278759 482.62303539 -125.25208625 486.90857615 -127.125 491.1875 C-129.79501815 497.34962084 -132.00431969 503.59034441 -134 510 C-134.66 510 -135.32 510 -136 510 C-136.13140381 510.56170898 -136.26280762 511.12341797 -136.39819336 511.70214844 C-137.02854889 514.10900694 -137.80167212 516.41928819 -138.62890625 518.765625 C-138.94150391 519.65507813 -139.25410156 520.54453125 -139.57617188 521.4609375 C-140.0644043 522.84152344 -140.0644043 522.84152344 -140.5625 524.25 C-140.89185547 525.18585937 -141.22121094 526.12171875 -141.56054688 527.0859375 C-142.37209208 529.39119635 -143.18529764 531.69585543 -144 534 C-144.66 534 -145.32 534 -146 534 C-146.103125 535.216875 -146.20625 536.43375 -146.3125 537.6875 C-146.63610639 541.50605537 -147.99209141 543.76189389 -150 547 C-151.14509192 549.40663386 -152.2489414 551.80819918 -153.3125 554.25 C-153.61591309 554.94383789 -153.91932617 555.63767578 -154.23193359 556.35253906 C-156.7057324 562.11054129 -158.82538122 567.95948134 -160.85717773 573.88549805 C-162.97632499 580.04343999 -165.39926549 586.02751676 -168 592 C-168.66 592 -169.32 592 -170 592 C-170.103125 592.81855469 -170.20625 593.63710938 -170.3125 594.48046875 C-171.12394144 598.63449567 -172.48046199 602.37388614 -174 606.3125 C-174.27328125 607.04017578 -174.5465625 607.76785156 -174.828125 608.51757812 C-176.85925752 613.85925752 -176.85925752 613.85925752 -178 615 C-180.58639038 615.09507821 -183.1459856 615.12556376 -185.73266602 615.11352539 C-186.94720459 615.11374443 -186.94720459 615.11374443 -188.1862793 615.1139679 C-190.87551508 615.11326854 -193.56468249 615.1054751 -196.25390625 615.09765625 C-198.11335716 615.09579215 -199.97280856 615.09436821 -201.83226013 615.09336853 C-206.73629096 615.08954271 -211.64029236 615.07971188 -216.54431152 615.06866455 C-221.54451092 615.05845181 -226.54471506 615.05387121 -231.54492188 615.04882812 C-241.36329421 615.03808967 -251.18164466 615.02101248 -261 615 C-260.37777455 613.23423525 -259.75049738 611.4702501 -259.12109375 609.70703125 C-258.77232178 608.72452393 -258.4235498 607.7420166 -258.06420898 606.72973633 C-256.98967836 603.9735246 -255.60294062 601.56860747 -254.05859375 599.05078125 C-252.6132864 596.25083158 -251.65259892 593.35273873 -250.625 590.375 C-248.63892801 584.62806828 -246.30125437 579.21591975 -243.69140625 573.73046875 C-240.09679191 565.98469687 -237.11678872 557.94673978 -234 550 C-233.34 550 -232.68 550 -232 550 C-231.9175 549.21625 -231.835 548.4325 -231.75 547.625 C-230.03445349 539.33319185 -225.97832979 531.61251583 -222.57006836 523.89404297 C-220.94586753 520.20636189 -219.38720929 516.51075214 -217.9375 512.75 C-216.54536507 509.17784101 -214.90342483 505.83351021 -213.125 502.4375 C-210.61600717 497.54559438 -208.74574953 492.63301981 -207 487.4375 C-205.01617247 481.53835944 -202.6739464 476.35763409 -199.51953125 470.97265625 C-196.83343076 465.7178427 -195.0759798 460.11160277 -193.19921875 454.52734375 C-192 451 -192 451 -191 449 C-190.34 449 -189.68 449 -189 449 C-188.76216797 448.03513672 -188.76216797 448.03513672 -188.51953125 447.05078125 C-186.22095736 438.14856968 -183.31313394 429.45559308 -179.10546875 421.26171875 C-176.66944406 416.46592055 -174.71368461 411.50375932 -172.75 406.5 C-172.38648438 405.5821875 -172.02296875 404.664375 -171.6484375 403.71875 C-170.76242667 401.48040685 -169.87968743 399.24083407 -169 397 C-168.34 397 -167.68 397 -167 397 C-166.9175 396.21625 -166.835 395.4325 -166.75 394.625 C-165.75324963 389.80737319 -163.93151507 385.51141859 -162 381 C-161.66613281 380.22011719 -161.33226562 379.44023438 -160.98828125 378.63671875 C-159.75060453 375.8042491 -158.51270074 372.98739824 -157.08764648 370.24291992 C-154.61216957 365.45817249 -152.74458612 360.67381141 -151.0625 355.5625 C-149.51063844 350.99312985 -148.02065765 346.64165936 -145.5 342.5 C-142.59500419 337.7235165 -141.01416836 332.55302934 -139.22827148 327.28686523 C-137.60479759 322.55662198 -135.70806124 318.20950349 -133.3515625 313.79296875 C-131.12213019 309.18590487 -129.37485762 304.38653778 -127.58618164 299.59399414 C-125.93300683 295.21195188 -124.07454315 291.05380441 -121.93481445 286.88867188 C-120.55468296 284.10029443 -119.46407143 281.22488778 -118.375 278.3125 C-116.95120859 274.52630309 -115.51672626 270.75007088 -114 267 C-113.34 267 -112.68 267 -112 267 C-111.87093262 266.2769165 -111.74186523 265.55383301 -111.60888672 264.80883789 C-110.60525535 260.17901475 -108.81222426 255.85512482 -107.125 251.4375 C-106.77308594 250.49197266 -106.42117188 249.54644531 -106.05859375 248.57226562 C-105.71183594 247.66025391 -105.36507812 246.74824219 -105.0078125 245.80859375 C-104.69473145 244.98157959 -104.38165039 244.15456543 -104.05908203 243.30249023 C-102.95946926 240.91188442 -101.58196167 239.09198295 -100 237 C-99.14255386 235.12698912 -99.14255386 235.12698912 -98.53515625 233.171875 C-98.29216797 232.45386719 -98.04917969 231.73585938 -97.79882812 230.99609375 C-97.4343457 229.88427734 -97.4343457 229.88427734 -97.0625 228.75 C-95.35127106 223.55635099 -93.4509426 218.6865051 -90.93481445 213.82666016 C-86.55250541 205.26347493 -83.40427523 195.98149209 -80 187 C-79.34 187 -78.68 187 -78 187 C-77.6596875 185.4221875 -77.6596875 185.4221875 -77.3125 183.8125 C-74.89264406 174.20076451 -70.68883634 165.20171193 -66.4765625 156.26953125 C-64.49911641 151.89090063 -62.83536107 147.41464082 -61.1484375 142.91796875 C-59.95149913 139.8767682 -58.54884382 137.04457372 -57.03125 134.15625 C-55.67995505 131.3308151 -54.60251143 128.43106697 -53.5 125.5 C-51.88370389 121.20794538 -50.14697159 117.13471064 -48.02734375 113.07421875 C-45.76195583 108.50037471 -43.932077 103.72154987 -42 99 C-41.16813897 96.99938718 -40.33481968 94.99938004 -39.5 93 C-39.08621094 92.00613281 -38.67242187 91.01226562 -38.24609375 89.98828125 C-37.42800784 88.02641379 -36.60776413 86.06544445 -35.78515625 84.10546875 C-33.97251367 79.77944956 -32.17062272 75.4522493 -30.45703125 71.0859375 C-30.19398193 70.41796143 -29.93093262 69.74998535 -29.65991211 69.06176758 C-28.91270895 67.15854934 -28.17104965 65.25315734 -27.4296875 63.34765625 C-26 60 -26 60 -24.5703125 57.71484375 C-22.15254746 53.53487682 -20.6559514 49.02585214 -19 44.5 C-16.99887044 39.03074742 -15.06385728 33.96932469 -12 29 C-10.76813018 25.88064337 -9.62695598 22.74830973 -8.51367188 19.5859375 C-6.05749006 12.79649183 -3.07358053 6.65942448 0 0 Z " fill="#F0BE3C" transform="translate(494,177)"/>
<path d="M0 0 C0 0.66 0 1.32 0 2 C0.721875 2.165 1.44375 2.33 2.1875 2.5 C6.20452846 4.64241518 8.10075695 7.9186479 10 12 C10 12.99 10 13.98 10 15 C11.04821898 14.99078207 12.09643797 14.98156414 13.17642117 14.97206688 C38.69064615 14.74999805 64.20474571 14.58570876 89.71973324 14.48187828 C102.05870361 14.43033076 114.3970353 14.36006353 126.7355957 14.24560547 C137.49088407 14.14588218 148.24570989 14.08140585 159.00144774 14.05911505 C164.69596947 14.04608606 170.38916802 14.01550475 176.0832653 13.94269943 C181.4459133 13.87468927 186.80669665 13.85390985 192.16973495 13.86892319 C194.13499026 13.86617785 196.10030954 13.84636047 198.06519127 13.80794525 C212.87933492 13.53258512 212.87933492 13.53258512 218.0862751 17.13557816 C220.38572026 19.64736217 222.18948875 22.12327728 224 25 C225.25500588 26.59590791 226.52385157 28.18113193 227.8125 29.75 C228.4621875 30.57371094 229.111875 31.39742187 229.78125 32.24609375 C232.39560074 35.49101852 235.09372335 38.65500184 237.8125 41.8125 C238.32312988 42.40554932 238.83375977 42.99859863 239.35986328 43.60961914 C240.39640526 44.81305643 241.43302642 46.01642552 242.46972656 47.21972656 C249.05810085 54.88444024 255.55379956 62.62225916 261.9296875 70.46484375 C262.61289062 71.30144531 263.29609375 72.13804687 264 73 C265.03512742 74.53993464 265.03512742 74.53993464 266.0911665 76.11097908 C268.45212889 78.91415829 269.00161975 79.00031227 272.91050434 79.75390434 C274.4772175 79.78635462 276.04482172 79.78588777 277.61164856 79.75949097 C278.47755023 79.76870107 279.3434519 79.77791117 280.23559302 79.78740036 C283.13660219 79.81099205 286.03574736 79.79186803 288.93676758 79.77294922 C291.01630806 79.78111909 293.09583962 79.79192096 295.175354 79.80516052 C300.82175626 79.83363709 306.46757629 79.82523106 312.11400819 79.81029272 C318.01443744 79.80092493 323.91472343 79.82535211 329.81510925 79.84622192 C340.98873451 79.88059436 352.16215519 79.88449479 363.33582276 79.87749684 C376.05643616 79.87101003 388.77690548 79.89841823 401.49747622 79.92869925 C427.6650053 79.99022975 453.83240776 80.0079089 480 80 C480 88.91 480 97.82 480 107 C477.33311096 106.98366013 474.66622192 106.96732025 471.91851807 106.95048523 C446.78704804 106.80271579 421.65609733 106.72705107 396.524189 106.71759319 C383.60345745 106.71100136 370.68363725 106.68020953 357.76318359 106.59204102 C346.49893776 106.51523622 335.23564667 106.48425111 323.9711473 106.50781661 C318.008614 106.51870253 312.04809666 106.50696514 306.08588409 106.44031334 C300.4674092 106.37822921 294.85220371 106.37766628 289.23360252 106.4231987 C287.17773536 106.4292151 285.12166069 106.4132297 283.06617928 106.37295341 C271.36251743 105.88761115 271.36251743 105.88761115 261.19551849 110.81876564 C258.54794676 113.47485686 256.29888913 116.33501735 254.14959478 119.40263999 C252.4120722 121.81692469 250.39834007 123.94892473 248.375 126.125 C246.06739108 128.62456748 243.96219993 131.05372256 242.00284004 133.83842182 C238.56066735 138.40231511 235.87644226 141.50379874 230.23498154 142.99561119 C225.63659392 143.49233834 221.04902918 143.36301621 216.43310547 143.2487793 C214.66810807 143.24567214 212.90309647 143.24742666 211.1381073 143.25364685 C206.3710604 143.25678973 201.60708822 143.1923492 196.84075308 143.11533332 C191.85079341 143.04633869 186.86075491 143.04008946 181.87039185 143.02705383 C172.43169322 142.99293081 162.99440429 142.90275676 153.55632508 142.79220945 C142.80679979 142.66904776 132.05720541 142.60872514 121.30714965 142.55355966 C99.2039811 142.43873237 77.10207952 142.24538369 55 142 C54.70198486 142.78930908 54.40396973 143.57861816 54.09692383 144.3918457 C52.94259648 147.13648828 51.95339606 148.3134884 49.6875 150.1875 C49.11386719 150.67605469 48.54023438 151.16460938 47.94921875 151.66796875 C43.24379097 154.88350156 39.33353149 155.2305333 33.6875 155.125 C32.43324219 155.10695313 31.17898438 155.08890625 29.88671875 155.0703125 C28.93410156 155.04710937 27.98148437 155.02390625 27 155 C27 154.34 27 153.68 27 153 C26.13375 152.835 25.2675 152.67 24.375 152.5 C18.68034624 149.96904277 15.64819862 144.89196737 13.125 139.3125 C10.79160804 132.17175835 10.5726723 123.89860373 14 117.125 C17.63079657 111.5240837 23.27383999 105.44132 30 104 C37.06750615 103.21333412 42.99089868 104.04362604 49 108 C51.84741031 110.68589754 54.24559822 113.49119645 56 117 C141.14 117.495 141.14 117.495 228 118 C228.66 116.68 229.32 115.36 230 114 C231.18263997 112.70589282 232.41706632 111.45803517 233.6875 110.25 C237.13912233 106.89234198 240.33903725 103.41338269 243.453125 99.7421875 C245 98 245 98 247.5 95.875 C249.29739664 94.01771784 249.29739664 94.01771784 249.0625 91.0625 C247.75610528 87.29700933 245.82816577 85.79175162 243 83 C241.38096813 80.95476603 239.80309119 78.90559289 238.25 76.8125 C234.46475818 71.79809955 230.47676957 67.09019247 226.21875 62.46484375 C223.15521599 59.06151635 220.29419964 55.50795705 217.43359375 51.93359375 C216.63050781 50.96550781 215.82742188 49.99742187 215 49 C214.35030684 47.9025444 214.35030684 47.9025444 213.68748856 46.78291798 C210.6854872 42.39080721 208.37854634 40.29251556 203.0878067 39.16986656 C197.99464168 38.74103902 192.90161728 38.83994326 187.79589844 38.91479492 C185.83077875 38.91078235 183.86566374 38.90286333 181.90057373 38.89134216 C176.57798456 38.87170927 171.2571143 38.90808891 165.93475628 38.95572829 C160.36329095 38.99717936 154.79186642 38.99065905 149.22027588 38.99031067 C139.86888729 38.99680688 130.51815837 39.03777431 121.16699219 39.10131836 C110.35133755 39.17458509 99.53633149 39.20263103 88.72044349 39.204467 C77.20559282 39.20671422 65.690984 39.23945417 54.17622089 39.28248048 C50.85667024 39.2929773 47.53714702 39.29802916 44.2175827 39.30199242 C39.00694908 39.30989318 33.79681753 39.33837785 28.58637238 39.38292885 C26.67236326 39.39622684 24.75829347 39.4027423 22.84423828 39.40205383 C20.235617 39.40232953 17.62836545 39.42713817 15.0199585 39.4584198 C14.25887716 39.45290751 13.49779583 39.44739522 12.71365142 39.4417159 C9.14966403 39.51055223 7.37820719 39.67628951 4.62375259 42.03384876 C4.08791424 42.68267867 3.55207588 43.33150858 3 44 C2.34 44 1.68 44 1 44 C1 44.99 1 45.98 1 47 C-5.74785642 49.53678813 -13.06496903 50.35667826 -20.1171875 48.41796875 C-26.24250483 45.32708282 -31.32554321 39.13960647 -34.5 33.1875 C-35.76776408 25.10550398 -36.17163843 16.30365719 -32 9 C-22.90310552 -2.38473621 -13.50690126 -5.78867197 0 0 Z " fill="#F1BE3B" transform="translate(368,830)"/>
<path d="M0 0 C0.33 0 0.66 0 1 0 C1.33808686 2.06172613 1.67027361 4.1244203 2 6.1875 C2.185625 7.33605469 2.37125 8.48460937 2.5625 9.66796875 C2.93489477 12.50415393 3.08596021 15.14719564 3 18 C3.66 18 4.32 18 5 18 C6.08708863 21.76713118 7.17132885 25.53507045 8.25317383 29.30371094 C8.79821182 31.20028136 9.3453666 33.09624306 9.89257812 34.9921875 C18.49552391 64.98410857 18.49552391 64.98410857 12.63671875 75.59375 C9.94303306 79.55391798 6.76140724 83.02740885 3 86 C2.34 86 1.68 86 1 86 C1.33 98.87 1.66 111.74 2 125 C2.33 120.38 2.66 115.76 3 111 C5.5185452 101.20565755 12.47064569 94.1902947 21 89 C28.91246605 85.30964615 36.54182835 84.23622406 45.1875 83.75 C46.90163086 83.63398437 46.90163086 83.63398437 48.65039062 83.515625 C51.43299765 83.32934168 54.21565398 83.15773152 57 83 C54.957979 86.41987743 52.85651472 89.78421871 50.6875 93.125 C47.18096376 98.60862583 44.03829059 104.24616764 41 110 C40.34 110 39.68 110 39 110 C38.814375 110.825 38.62875 111.65 38.4375 112.5 C35.87607983 118.73650128 31.75997063 123.46376469 25.6875 126.5 C19.41658069 128.90367435 13.09911548 129.12266156 6.875 126.5 C5.92625 126.005 4.9775 125.51 4 125 C1.94277412 130.16815281 1.58486681 134.8922296 1.375 140.375 C1.31699219 141.62216797 1.31699219 141.62216797 1.2578125 142.89453125 C1.16425754 144.92935156 1.08107287 146.96464416 1 149 C1.56892188 148.99078207 2.13784376 148.98156414 2.7240057 148.97206688 C16.59652777 148.75078135 30.46873883 148.58617183 44.34265041 148.48187828 C51.052241 148.43041248 57.76065035 148.3603114 64.46948242 148.24560547 C70.947022 148.13675772 77.42333636 148.07711737 83.90172005 148.05122757 C86.3701716 148.03278402 88.83855784 147.9967658 91.30648613 147.94269943 C111.68758995 147.51405395 111.68758995 147.51405395 116.43969727 151.14859009 C118.73261248 153.66579336 120.34154189 156.04097452 122 159 C123.17957277 160.39433833 124.38604612 161.7669671 125.6328125 163.1015625 C129.1358267 167.12085283 132.50844086 171.24135881 135.875 175.375 C140.42501978 180.9351326 145.05861555 186.37029707 149.9140625 191.66796875 C153.03787347 195.16031922 155.97118359 198.80027301 158.9140625 202.4453125 C160.75207126 204.69635693 162.63831073 206.88536566 164.5625 209.0625 C167 212 167 212 167 214 C206.6 214 246.2 214 287 214 C287 222.91 287 231.82 287 241 C270.87462806 241.27136548 254.75121778 241.49220167 238.62419319 241.62174606 C231.13534675 241.68350695 223.64802416 241.76762962 216.16015625 241.90527344 C209.63009491 242.02525292 203.10113732 242.10238318 196.57000434 242.12906194 C193.1142089 242.14464894 189.66156949 242.18099752 186.20679092 242.26876068 C163.51403402 242.82308049 163.51403402 242.82308049 158.18695068 238.44421387 C155.52447446 235.61884585 153.79287414 232.43669706 152 229 C150.53772865 227.11593617 149.04202932 225.25686242 147.5 223.4375 C146.77039063 222.54160156 146.04078125 221.64570312 145.2890625 220.72265625 C142.88913911 217.86813986 140.40092254 215.11841134 137.875 212.375 C134.25984624 208.44742554 130.92806713 204.42156509 127.703125 200.171875 C125.31222114 197.1229242 122.7145972 194.27895869 120.12109375 191.40234375 C109.96523584 179.89985274 109.96523584 179.89985274 107.92146206 175.87713718 C104.86665138 172.89279582 101.31585654 173.4460988 97.27613831 173.4853363 C96.37393222 173.47839078 95.47172614 173.47144525 94.54218048 173.46428925 C91.50646889 173.44593224 88.47153113 173.45630774 85.43579102 173.46655273 C83.26452039 173.45949866 81.09325468 173.45075581 78.92199707 173.44044495 C73.01498962 173.41788369 67.10824924 173.42090648 61.20121503 173.42976642 C56.27550231 173.43486535 51.34984027 173.42759264 46.42413276 173.42029434 C34.80671756 173.40327385 23.18943363 173.40688278 11.57202148 173.42358398 C-0.42563557 173.44050846 -12.42283617 173.42467105 -24.42047065 173.3923611 C-34.71013254 173.36569736 -44.99968097 173.35838049 -55.28937393 173.36687618 C-61.43982358 173.37181466 -67.59005428 173.36953999 -73.74047661 173.34908867 C-79.52307896 173.33078213 -85.30515655 173.33662897 -91.08773041 173.36128807 C-93.21301319 173.3663119 -95.3383356 173.36276573 -97.46358681 173.35013962 C-100.35938595 173.33429356 -103.25343921 173.34908011 -106.14915466 173.37181091 C-106.99535651 173.35997518 -107.84155836 173.34813946 -108.71340269 173.33594507 C-112.73373852 173.40030633 -114.53459613 173.52644587 -117.41182041 176.45405674 C-117.93591968 177.29421802 -118.46001894 178.13437929 -119 179 C-124.80081856 182.49652103 -131.28968404 184.16701147 -138 183 C-144.64170185 181.01740243 -149.1921592 176.68154024 -153 171 C-157.16644947 162.66710105 -156.98133173 154.15617284 -154.11328125 145.4296875 C-151.45125065 139.61992248 -146.8327125 134.67989493 -141 132 C-134.55437975 130.08918982 -128.21254082 130.45126531 -122 133 C-122 133.66 -122 134.32 -122 135 C-121.41734375 135.24878906 -120.8346875 135.49757813 -120.234375 135.75390625 C-117.68492378 137.17571559 -116.16383841 138.74149311 -114.25 140.9375 C-113.63640625 141.62714844 -113.0228125 142.31679688 -112.390625 143.02734375 C-111 145 -111 145 -111 148 C-77.67 148 -44.34 148 -10 148 C-10 138.1 -10 128.2 -10 118 C-12.31 118 -14.62 118 -17 118 C-17.33 118.33 -17.66 118.66 -18 119 C-26.90740958 119.51694788 -35.81052963 120.00798232 -44 116 C-45.19625 115.443125 -46.3925 114.88625 -47.625 114.3125 C-51.21072159 112.15773923 -53.69410008 109.21389203 -56.32421875 106 C-57.95263708 103.94376673 -57.95263708 103.94376673 -60.015625 102.28125 C-62.82882311 99.04717973 -63.78855851 95.54502178 -65.0625 91.5 C-67.18883768 84.82812427 -67.18883768 84.82812427 -71 79 C-71 78.34 -71 77.68 -71 77 C-67.97207115 77.4587771 -65.58841895 78.18303559 -62.77197266 79.43554688 C-59.15876289 81.01141191 -55.57530289 81.90690428 -51.7109375 82.71875 C-50.34373374 83.01424769 -48.97654673 83.3098229 -47.609375 83.60546875 C-45.48591833 84.0556455 -43.36185214 84.5027539 -41.23730469 84.94775391 C-39.16429752 85.38460364 -37.09388903 85.83246858 -35.0234375 86.28125 C-33.18144775 86.66893555 -33.18144775 86.66893555 -31.30224609 87.06445312 C-26.3273426 88.47387425 -22.70484973 91.04730449 -18.8125 94.375 C-18.13832031 94.93960938 -17.46414063 95.50421875 -16.76953125 96.0859375 C-13.05487566 100.10399763 -12.75820017 103.99810762 -12.875 109.3125 C-12.89304687 110.38113281 -12.91109375 111.44976563 -12.9296875 112.55078125 C-12.95289063 113.35902344 -12.97609375 114.16726563 -13 115 C-12.01 115 -11.02 115 -10 115 C-10 106.09 -10 97.18 -10 88 C-11.65 87.34 -13.3 86.68 -15 86 C-22.09182124 80.00500705 -27.36890475 70.27195824 -28.17700195 60.96044922 C-28.70314907 42.45097098 -28.70314907 42.45097098 -24 34 C-23.5875 33.12472656 -23.175 32.24945312 -22.75 31.34765625 C-19.55655061 24.87910678 -15.50623855 20.05541539 -10.54296875 14.859375 C-7.04321647 10.92416967 -4.3091933 6.69282722 -1.49609375 2.23828125 C-1.00238281 1.49964844 -0.50867188 0.76101563 0 0 Z " fill="#EDBA37" transform="translate(561,619)"/>
<path d="M0 0 C32.67 0 65.34 0 99 0 C98.07377893 3.70488428 97.32789515 5.16604069 95 8 C97.97 8.33 100.94 8.66 104 9 C104 13.62 104 18.24 104 23 C68.69 23 33.38 23 -3 23 C-2.01 19.7 -1.02 16.4 0 13 C0 8.71 0 4.42 0 0 Z " fill="#EBC35C" transform="translate(451,768)"/>
<path d="M0 0 C3.94078439 2.59460041 6.94105291 6.13601207 9.046875 10.34765625 C94.186875 10.84265625 94.186875 10.84265625 181.046875 11.34765625 C181.046875 11.67765625 181.046875 12.00765625 181.046875 12.34765625 C124.286875 12.34765625 67.526875 12.34765625 9.046875 12.34765625 C9.541875 14.32765625 9.541875 14.32765625 10.046875 16.34765625 C10.706875 16.34765625 11.366875 16.34765625 12.046875 16.34765625 C12.07394639 18.59758984 12.09330329 20.8476172 12.109375 23.09765625 C12.12097656 24.350625 12.13257813 25.60359375 12.14453125 26.89453125 C12.046875 30.34765625 12.046875 30.34765625 11.046875 34.34765625 C69.126875 34.34765625 127.206875 34.34765625 187.046875 34.34765625 C187.046875 34.67765625 187.046875 35.00765625 187.046875 35.34765625 C127.976875 35.34765625 68.906875 35.34765625 8.046875 35.34765625 C7.386875 36.99765625 6.726875 38.64765625 6.046875 40.34765625 C4.49609375 42.078125 4.49609375 42.078125 2.734375 43.53515625 C1.87392578 44.26798828 1.87392578 44.26798828 0.99609375 45.015625 C-3.70933403 48.23115781 -7.61959351 48.57818955 -13.265625 48.47265625 C-15.14701172 48.44558594 -15.14701172 48.44558594 -17.06640625 48.41796875 C-18.49533203 48.38316406 -18.49533203 48.38316406 -19.953125 48.34765625 C-19.953125 47.68765625 -19.953125 47.02765625 -19.953125 46.34765625 C-20.819375 46.18265625 -21.685625 46.01765625 -22.578125 45.84765625 C-28.27277876 43.31669902 -31.30492638 38.23962362 -33.828125 32.66015625 C-36.16151696 25.5194146 -36.3804527 17.24625998 -32.953125 10.47265625 C-25.19969416 -1.4878919 -13.22746475 -6.54337352 0 0 Z " fill="#E5B539" transform="translate(414.953125,936.65234375)"/>
<path d="M0 0 C0 0.66 0 1.32 0 2 C0.721875 2.165 1.44375 2.33 2.1875 2.5 C6.20452846 4.64241518 8.10075695 7.9186479 10 12 C10 12.99 10 13.98 10 15 C7.69 15 5.38 15 3 15 C3 22.59 3 30.18 3 38 C70.32 38 137.64 38 207 38 C207 38.33 207 38.66 207 39 C205.97294071 39.00146656 204.94588142 39.00293312 203.88769913 39.00444412 C178.91737177 39.04101051 153.94717884 39.10042243 128.97696304 39.18390274 C116.90163189 39.22374194 104.82636638 39.25610961 92.75097656 39.27099609 C82.22822429 39.28398733 71.70561613 39.31088717 61.18294501 39.35461307 C55.60928897 39.37728481 50.03581105 39.39290726 44.4621048 39.39188385 C39.21881078 39.39114061 33.97591138 39.40895582 28.73271942 39.44116783 C26.80579934 39.44970507 24.87883519 39.451391 22.9519043 39.44580269 C20.32540114 39.43919863 17.70016681 39.45699609 15.0737915 39.48101807 C14.30725321 39.47325765 13.54071492 39.46549723 12.75094819 39.45750165 C9.17361317 39.5156188 7.38811122 39.66851261 4.62038803 42.03243637 C4.08565998 42.68173237 3.55093193 43.33102837 3 44 C2.34 44 1.68 44 1 44 C1 44.99 1 45.98 1 47 C-5.74785642 49.53678813 -13.06496903 50.35667826 -20.1171875 48.41796875 C-26.24250483 45.32708282 -31.32554321 39.13960647 -34.5 33.1875 C-35.76776408 25.10550398 -36.17163843 16.30365719 -32 9 C-22.90310552 -2.38473621 -13.50690126 -5.78867197 0 0 Z " fill="#E4B63D" transform="translate(368,830)"/>
<path d="M0 0 C0 0.66 0 1.32 0 2 C0.53625 2.20625 1.0725 2.4125 1.625 2.625 C4.97768975 4.56603091 7.72934094 6.8388864 10 10 C10.375 13.375 10.375 13.375 10 16 C10.66 16 11.32 16 12 16 C14.31542868 20.63085737 13.55132799 26.81989162 12.31640625 31.703125 C9.91686916 38.1948187 6.8379309 43.79662229 0.70703125 47.31640625 C-5.53069891 50.0919544 -11.44799126 51.35880858 -18.09375 49.375 C-24.37947475 46.66730318 -29.05109792 41.89780416 -32.1015625 35.796875 C-35.05401277 27.90527894 -34.72575595 20.37854416 -32.11328125 12.4296875 C-29.45125065 6.61992248 -24.8327125 1.67989493 -19 -1 C-12.55437975 -2.91081018 -6.21254082 -2.54873469 0 0 Z " fill="#EDBC3B" transform="translate(439,752)"/>
<path d="M0 0 C0.98350956 3.17320147 0.97258038 5.60296917 0.59765625 8.890625 C-0.31092397 18.48686553 -0.36387131 28.11853534 -0.5625 37.75 C-0.60578543 39.71875738 -0.64940256 41.6875075 -0.69335938 43.65625 C-0.79939702 48.43742485 -0.90094645 53.21867557 -1 58 C-2.40873761 58.4975979 -3.82006817 58.98785812 -5.23242188 59.47509766 C-6.01806519 59.74891266 -6.8037085 60.02272766 -7.61315918 60.30484009 C-11.25867274 61.36658449 -14.7267185 61.44971845 -18.5 61.375 C-19.23976074 61.36629883 -19.97952148 61.35759766 -20.74169922 61.34863281 C-26.25939548 61.20052303 -30.99964024 60.44720997 -36 58 C-37.19625 57.443125 -38.3925 56.88625 -39.625 56.3125 C-43.21072159 54.15773923 -45.69410008 51.21389203 -48.32421875 48 C-49.95263708 45.94376673 -49.95263708 45.94376673 -52.015625 44.28125 C-54.82882311 41.04717973 -55.78855851 37.54502178 -57.0625 33.5 C-59.18883768 26.82812427 -59.18883768 26.82812427 -63 21 C-63 20.34 -63 19.68 -63 19 C-59.97207115 19.4587771 -57.58841895 20.18303559 -54.77197266 21.43554688 C-51.15876289 23.01141191 -47.57530289 23.90690428 -43.7109375 24.71875 C-42.34373374 25.01424769 -40.97654673 25.3098229 -39.609375 25.60546875 C-37.48591833 26.0556455 -35.36185214 26.5027539 -33.23730469 26.94775391 C-31.16429752 27.38460364 -29.09388903 27.83246858 -27.0234375 28.28125 C-25.79544434 28.53970703 -24.56745117 28.79816406 -23.30224609 29.06445312 C-18.3273426 30.47387425 -14.70484973 33.04730449 -10.8125 36.375 C-10.13832031 36.93960938 -9.46414063 37.50421875 -8.76953125 38.0859375 C-5.05487566 42.10399763 -4.75820017 45.99810762 -4.875 51.3125 C-4.89304687 52.38113281 -4.91109375 53.44976563 -4.9296875 54.55078125 C-4.95289063 55.35902344 -4.97609375 56.16726563 -5 57 C-4.01 57 -3.02 57 -2 57 C-2 48.09 -2 39.18 -2 30 C-2.66 30 -3.32 30 -4 30 C-6 27 -6 27 -6 24 C-5.33333333 22 -4.66666667 20 -4 18 C-3.22612338 14.88909995 -2.54972285 11.7587128 -1.875 8.625 C-1.69324219 7.79355469 -1.51148438 6.96210937 -1.32421875 6.10546875 C-0.87989787 4.07094684 -0.43954423 2.03555921 0 0 Z " fill="#EDBA3D" transform="translate(553,677)"/>
<path d="M0 0 C-0.56847656 0.78761719 -1.13695312 1.57523438 -1.72265625 2.38671875 C-7.13005611 9.98011377 -11.76980989 17.68924065 -16 26 C-16.66 26 -17.32 26 -18 26 C-18.2784375 27.2375 -18.2784375 27.2375 -18.5625 28.5 C-21.12392017 34.73650128 -25.24002937 39.46376469 -31.3125 42.5 C-37.58341931 44.90367435 -43.90088452 45.12266156 -50.125 42.5 C-51.07375 42.005 -52.0225 41.51 -53 41 C-53.66 42.98 -54.32 44.96 -55 47 C-55.33 47 -55.66 47 -56 47 C-56.042721 45.33388095 -56.04063832 43.66617115 -56 42 C-55.505 41.505 -55.505 41.505 -55 41 C-54.83988958 38.81478928 -54.72249071 36.62639854 -54.625 34.4375 C-53.84020311 23.04640398 -50.55571481 17.01518019 -42.15234375 9.3046875 C-31.89416977 0.92121061 -12.9733986 -3.88184799 0 0 Z " fill="#E9BB50" transform="translate(618,703)"/>
<path d="M0 0 C0.66 0 1.32 0 2 0 C2.00586624 0.56962967 2.01173248 1.13925934 2.01777649 1.72615051 C2.08163964 7.64727196 2.16604038 13.56784629 2.26245117 19.48852539 C2.29573508 21.69906406 2.32375612 23.90968843 2.34643555 26.12036133 C2.37991759 29.29545666 2.43223052 32.46976417 2.48828125 35.64453125 C2.49467117 36.63524124 2.5010611 37.62595123 2.50764465 38.64668274 C2.53733589 40.02777473 2.53733589 40.02777473 2.56762695 41.43676758 C2.58428154 42.65255241 2.58428154 42.65255241 2.60127258 43.89289856 C3.0994949 46.52578741 3.93785559 47.33610617 6 49 C6.99 49.66 7.98 50.32 9 51 C4.38 51 -0.24 51 -5 51 C-5.86885665 42.47876881 -6.00147451 34.29738883 -5.5625 25.75 C-5.51029297 24.61175781 -5.45808594 23.47351563 -5.40429688 22.30078125 C-5.27639512 19.53345234 -5.14154253 16.7666589 -5 14 C-7.31 13.67 -9.62 13.34 -12 13 C-12 12.34 -12 11.68 -12 11 C-9.36 11.33 -6.72 11.66 -4 12 C-4 10.02 -4 8.04 -4 6 C-3.34 6 -2.68 6 -2 6 C-1.855625 5.195625 -1.71125 4.39125 -1.5625 3.5625 C-1 1 -1 1 0 0 Z " fill="#FBB80B" transform="translate(560,724)"/>
<path d="M0 0 C-3.29164829 0.02895225 -6.58326399 0.0467823 -9.875 0.0625 C-10.81214844 0.07087891 -11.74929688 0.07925781 -12.71484375 0.08789062 C-14.05869141 0.09272461 -14.05869141 0.09272461 -15.4296875 0.09765625 C-16.67081299 0.10551147 -16.67081299 0.10551147 -17.93701172 0.11352539 C-20 0 -20 0 -22 -1 C-22.33 2.3 -22.66 5.6 -23 9 C9.01 9 41.02 9 74 9 C74 9.33 74 9.66 74 10 C41.66 10 9.32 10 -24 10 C-24 6.04 -24 2.08 -24 -2 C-16.21585007 -3.62924068 -7.10883295 -3.81045698 0 0 Z " fill="#F4B308" transform="translate(501,858)"/>
<path d="M0 0 C0.98350956 3.17320147 0.97258038 5.60296917 0.59765625 8.890625 C-0.31092397 18.48686553 -0.36387131 28.11853534 -0.5625 37.75 C-0.60578543 39.71875738 -0.64940256 41.6875075 -0.69335938 43.65625 C-0.79939702 48.43742485 -0.90094645 53.21867557 -1 58 C-2.4117783 58.53394179 -3.82970244 59.05165104 -5.25 59.5625 C-6.03890625 59.85253906 -6.8278125 60.14257812 -7.640625 60.44140625 C-10.19103452 61.04522837 -11.55322229 60.8473932 -14 60 C-13.01 60 -12.02 60 -11 60 C-11 59.34 -11 58.68 -11 58 C-9.35 58 -7.7 58 -6 58 C-6.3856646 50.88515313 -7.39099399 44.64558134 -10 38 C-6.58477607 40.27681596 -6.13576061 41.16545586 -5 45 C-4.8046875 48.11328125 -4.8046875 48.11328125 -4.875 51.3125 C-4.89304687 52.38113281 -4.91109375 53.44976563 -4.9296875 54.55078125 C-4.96449219 55.76314453 -4.96449219 55.76314453 -5 57 C-4.01 57 -3.02 57 -2 57 C-2 48.09 -2 39.18 -2 30 C-2.66 30 -3.32 30 -4 30 C-6 27 -6 27 -6 24 C-5.33333333 22 -4.66666667 20 -4 18 C-3.22612338 14.88909995 -2.54972285 11.7587128 -1.875 8.625 C-1.69324219 7.79355469 -1.51148438 6.96210937 -1.32421875 6.10546875 C-0.87989787 4.07094684 -0.43954423 2.03555921 0 0 Z " fill="#CE9E28" transform="translate(553,677)"/>
<path d="M0 0 C-2.1385485 2.1385485 -3.13275314 2.42655063 -6 3 C-6.03738281 3.59167969 -6.07476563 4.18335938 -6.11328125 4.79296875 C-6.51054897 9.56797099 -6.95668 13.1045504 -10 17 C-10.66 17.33 -11.32 17.66 -12 18 C-17 15.54385965 -17 15.54385965 -19 14 C-19.33 13.01 -19.66 12.02 -20 11 C-5.58547774 -1.73342413 -5.58547774 -1.73342413 0 0 Z " fill="#F5BD32" transform="translate(529,717)"/>
<path d="M0 0 C2 2 2 2 2.01171875 4.80859375 C1.90472656 6.00613281 1.79773438 7.20367188 1.6875 8.4375 C1.57649469 9.7811163 1.46720799 11.12487538 1.359375 12.46875 C1.29943359 13.19191406 1.23949219 13.91507813 1.17773438 14.66015625 C0.85454419 18.91490181 0.65147303 23.17610472 0.4375 27.4375 C0.39391357 28.2843335 0.35032715 29.13116699 0.30541992 30.00366211 C0.20256707 32.00238784 0.10112406 34.00118605 0 36 C0.66 36 1.32 36 2 36 C3.13764351 40.26616316 4 43.56486311 4 48 C3.01 48 2.02 48 1 48 C-1.82056259 42.41841177 -2.44552724 38.08540148 -2.3125 31.875 C-2.30412109 31.02131836 -2.29574219 30.16763672 -2.28710938 29.28808594 C-2.10882487 19.47887257 -1.09554803 9.74255214 0 0 Z " fill="#FBB913" transform="translate(554,672)"/>
<path d="M0 0 C1.32 0.33 2.64 0.66 4 1 C4.23746695 7.96569734 3.94488319 14.77372217 3.125 21.6875 C3.04652832 22.39455078 2.96805664 23.10160156 2.88720703 23.83007812 C2.66594249 25.56452029 2.34169186 27.28521305 2 29 C1.34 29.33 0.68 29.66 0 30 C0 20.1 0 10.2 0 0 Z " fill="#DBA728" transform="translate(551,737)"/>
<path d="M0 0 C0 0.99 0 1.98 0 3 C3.17053195 3.91658383 6.12823862 4.18832039 9.421875 4.31640625 C10.44667969 4.35830078 11.47148438 4.40019531 12.52734375 4.44335938 C13.59082031 4.48267578 14.65429688 4.52199219 15.75 4.5625 C16.82894531 4.60568359 17.90789063 4.64886719 19.01953125 4.69335938 C21.67956428 4.79928989 24.33968812 4.90136421 27 5 C27.33 5.99 27.66 6.98 28 8 C20.74 8 13.48 8 6 8 C6 7.34 6 6.68 6 6 C3.03 5.67 0.06 5.34 -3 5 C-1 1 -1 1 0 0 Z " fill="#F5BE2F" transform="translate(549,771)"/>
<path d="M0 0 C2.5654594 2.5654594 2.54046087 4.47686668 3 8 C3.66 8 4.32 8 5 8 C5.21192221 13.19209404 4.5912689 17.126739 3 22 C2.01 22 1.02 22 0 22 C0 14.74 0 7.48 0 0 Z " fill="#EAC163" transform="translate(552,713)"/>
<path d="M0 0 C1.6168484 3.23369679 0.00851816 6.30628257 -0.9375 9.625 C-1.13279297 10.33140625 -1.32808594 11.0378125 -1.52929688 11.765625 C-2.01314492 13.51219844 -2.50575123 15.25634124 -3 17 C-3.66 17 -4.32 17 -5 17 C-5.33 18.65 -5.66 20.3 -6 22 C-6.66 21.67 -7.32 21.34 -8 21 C-7.6595347 12.69264663 -6.25338101 5.84244454 0 0 Z " fill="#EFC155" transform="translate(553,671)"/>
<path d="M0 0 C1.14940063 0.06465454 1.14940063 0.06465454 2.32202148 0.13061523 C7.86938711 0.49438711 7.86938711 0.49438711 9 1.625 C9.07226502 3.47787502 9.0838122 5.33333878 9.0625 7.1875 C9.05347656 8.19941406 9.04445313 9.21132813 9.03515625 10.25390625 C9.02355469 11.03636719 9.01195312 11.81882812 9 12.625 C8.34 12.625 7.68 12.625 7 12.625 C6.875 4.875 6.875 4.875 8 2.625 C7.21238281 2.72039063 6.42476563 2.81578125 5.61328125 2.9140625 C-2.60516512 3.75049609 -9.90734789 3.22763651 -18 1.625 C-18 1.295 -18 0.965 -18 0.625 C-11.90636961 -0.37213952 -6.13997602 -0.35875892 0 0 Z " fill="#ECC359" transform="translate(487,958.375)"/>
<path d="M0 0 C0.33 0 0.66 0 1 0 C1 7.26 1 14.52 1 22 C1.66 22 2.32 22 3 22 C2.67 27.61 2.34 33.22 2 39 C1.01 39.495 1.01 39.495 0 40 C0 26.8 0 13.6 0 0 Z " fill="#2B210B" transform="translate(562,705)"/>
<path d="M0 0 C-3.29164829 0.02895225 -6.58326399 0.0467823 -9.875 0.0625 C-10.81214844 0.07087891 -11.74929688 0.07925781 -12.71484375 0.08789062 C-14.05869141 0.09272461 -14.05869141 0.09272461 -15.4296875 0.09765625 C-16.67081299 0.10551147 -16.67081299 0.10551147 -17.93701172 0.11352539 C-20 0 -20 0 -22 -1 C-22.33 2.63 -22.66 6.26 -23 10 C-23.33 10 -23.66 10 -24 10 C-24 6.04 -24 2.08 -24 -2 C-16.21585007 -3.62924068 -7.10883295 -3.81045698 0 0 Z " fill="#F8BB1B" transform="translate(501,858)"/>
<path d="M0 0 C-1.93166016 -0.01740234 -1.93166016 -0.01740234 -3.90234375 -0.03515625 C-5.58072772 -0.0445327 -7.25911326 -0.05363305 -8.9375 -0.0625 C-9.78763672 -0.07087891 -10.63777344 -0.07925781 -11.51367188 -0.08789062 C-12.32255859 -0.09111328 -13.13144531 -0.09433594 -13.96484375 -0.09765625 C-14.7137085 -0.10289307 -15.46257324 -0.10812988 -16.23413086 -0.11352539 C-18.02667739 -0.19341752 -18.02667739 -0.19341752 -19 1 C-19.23363881 2.84891946 -19.41303635 4.70488031 -19.5625 6.5625 C-19.64628906 7.57441406 -19.73007812 8.58632813 -19.81640625 9.62890625 C-19.87699219 10.41136719 -19.93757812 11.19382812 -20 12 C-20.33 12 -20.66 12 -21 12 C-21.02685938 9.85423363 -21.04633088 7.70837355 -21.0625 5.5625 C-21.07410156 4.36753906 -21.08570313 3.17257812 -21.09765625 1.94140625 C-21 -1 -21 -1 -20 -2 C-13.32760081 -3.4196594 -5.82493913 -3.88329275 0 0 Z " fill="#F8BB1F" transform="translate(761,925)"/>
<path d="M0 0 C0 0.33 0 0.66 0 1 C-15.74487472 2.14806378 -15.74487472 2.14806378 -23 2 C-23 1.01 -23 0.02 -23 -1 C-14.86776924 -1.85602429 -7.89211879 -2.31320723 0 0 Z " fill="#F9BB1B" transform="translate(519,960)"/>
<path d="M0 0 C0.66 0.66 1.32 1.32 2 2 C-2.95 4.97 -7.9 7.94 -13 11 C-13.33 10.34 -13.66 9.68 -14 9 C-14.66 9 -15.32 9 -16 9 C-15.67 8.01 -15.34 7.02 -15 6 C-11.12137916 4.60955102 -8.13537997 4 -4 4 C-3.67 3.01 -3.34 2.02 -3 1 C-2.01 0.67 -1.02 0.34 0 0 Z " fill="#EAC470" transform="translate(521,715)"/>
<path d="M0 0 C-0.33 0.66 -0.66 1.32 -1 2 C-4.08325358 2.0582253 -7.16636505 2.09367134 -10.25 2.125 C-11.55904297 2.15013672 -11.55904297 2.15013672 -12.89453125 2.17578125 C-13.73886719 2.18222656 -14.58320313 2.18867187 -15.453125 2.1953125 C-16.22817383 2.20578613 -17.00322266 2.21625977 -17.80175781 2.22705078 C-20.25883539 1.97326556 -21.87311542 1.22444152 -24 0 C-15.96992764 -1.50563857 -8.08567124 -0.63782601 0 0 Z " fill="#EBC45B" transform="translate(476,856)"/>
<path d="M0 0 C0.66 0.33 1.32 0.66 2 1 C0.948125 1.721875 -0.10375 2.44375 -1.1875 3.1875 C-4.4835665 5.53226275 -7.2286754 8.06071633 -10 11 C-14.875 7.375 -14.875 7.375 -16 4 C-15.01 4.33 -14.02 4.66 -13 5 C-10.85744207 4.61067144 -10.85744207 4.61067144 -9 4 C-9.33 4.66 -9.66 5.32 -10 6 C-6.4213696 4.34832443 -3.25179812 2.21713508 0 0 Z " fill="#E5BA57" transform="translate(519,718)"/>
<path d="M0 0 C0.33 0.99 0.66 1.98 1 3 C-1.33333333 7.66666667 -1.33333333 7.66666667 -4 9 C-10.70588235 5.58823529 -10.70588235 5.58823529 -12 3 C-11.113125 3.226875 -10.22625 3.45375 -9.3125 3.6875 C-5.4000176 4.05660211 -4.09495795 3.29911162 -1 1 C-0.67 0.67 -0.34 0.34 0 0 Z " fill="#DDA518" transform="translate(521,726)"/>
<path d="M0 0 C2.31 0.33 4.62 0.66 7 1 C7 5.62 7 10.24 7 15 C6.67 15 6.34 15 6 15 C6 11.04 6 7.08 6 3 C1.05 3 -3.9 3 -9 3 C-9 2.67 -9 2.34 -9 2 C-6.03 2 -3.06 2 0 2 C0 1.34 0 0.68 0 0 Z " fill="#EFC047" transform="translate(548,776)"/>
<path d="M0 0 C1.03930664 0.07831055 1.03930664 0.07831055 2.09960938 0.15820312 C3.79604437 0.28689819 5.49184863 0.42386184 7.1875 0.5625 C3.55064463 2.98707025 0.82517221 2.86018407 -3.375 2.8125 C-4.06013672 2.82023438 -4.74527344 2.82796875 -5.45117188 2.8359375 C-10.5591133 2.8158867 -10.5591133 2.8158867 -12.8125 0.5625 C-8.46757229 -0.57646163 -4.42629215 -0.36850471 0 0 Z " fill="#ECC35B" transform="translate(732.8125,922.4375)"/>
<path d="M0 0 C2 4 2 4 2 6 C2.66 6 3.32 6 4 6 C3.67 8.64 3.34 11.28 3 14 C2.01 14 1.02 14 0 14 C0 9.38 0 4.76 0 0 Z " fill="#E5C172" transform="translate(552,721)"/>
<path d="M0 0 C-3.63423209 2.32590854 -6.77088331 2.16265833 -11 2 C-11.33 5.96 -11.66 9.92 -12 14 C-12.33 14 -12.66 14 -13 14 C-13 9.38 -13 4.76 -13 0 C-7.87361891 -0.85439685 -4.94660369 -0.89038866 0 0 Z " fill="#FABA17" transform="translate(799,846)"/>
<path d="M0 0 C0 3 0 3 -1.375 4.6875 C-3.31526686 7.44864899 -3.77058488 9.81744501 -4.375 13.09765625 C-5.12388762 15.37708293 -6.21135393 16.43979514 -8 18 C-6.87254214 10.49350423 -5.46472074 5.46472074 0 0 Z " fill="#EBC36A" transform="translate(553,671)"/>
<path d="M0 0 C0.33 0 0.66 0 1 0 C1.04898438 0.92683594 1.09796875 1.85367188 1.1484375 2.80859375 C1.22320313 4.00613281 1.29796875 5.20367188 1.375 6.4375 C1.44460938 7.63246094 1.51421875 8.82742188 1.5859375 10.05859375 C1.72257813 11.02925781 1.85921875 11.99992188 2 13 C2.66 13.33 3.32 13.66 4 14 C3.01 14 2.02 14 1 14 C0.34 15.98 -0.32 17.96 -1 20 C-1.33 20 -1.66 20 -2 20 C-2.042721 18.33388095 -2.04063832 16.66617115 -2 15 C-1.67 14.67 -1.34 14.34 -1 14 C-0.76472227 11.65012738 -0.58613583 9.29443961 -0.4375 6.9375 C-0.35371094 5.64714844 -0.26992188 4.35679687 -0.18359375 3.02734375 C-0.12300781 2.02832031 -0.06242188 1.02929688 0 0 Z " fill="#C4A45E" transform="translate(564,730)"/>
<path d="M0 0 C0.99 0.33 1.98 0.66 3 1 C2.34 5.95 1.68 10.9 1 16 C1.66 16.33 2.32 16.66 3 17 C2.01 17.66 1.02 18.32 0 19 C0 12.73 0 6.46 0 0 Z " fill="#F4B617" transform="translate(590,724)"/>
<path d="M0 0 C0.66 0 1.32 0 2 0 C2.66 2.64 3.32 5.28 4 8 C3.34 7.67 2.68 7.34 2 7 C2 6.01 2 5.02 2 4 C-1.0109362 6.0072908 -1.63016497 6.83884224 -3 10 C-3.33 9.34 -3.66 8.68 -4 8 C-1.48571429 1.48571429 -1.48571429 1.48571429 0 0 Z " fill="#3D331A" transform="translate(535,257)"/>
<path d="M0 0 C0.33 0 0.66 0 1 0 C0.6875 3.375 0.6875 3.375 0 7 C-0.99 7.66 -1.98 8.32 -3 9 C-3.33 8.34 -3.66 7.68 -4 7 C-1.55555556 1.55555556 -1.55555556 1.55555556 0 0 Z " fill="#F9BA1B" transform="translate(521,720)"/>
<path d="M0 0 C0.66 0.66 1.32 1.32 2 2 C1.625 5.125 1.625 5.125 1 8 C-0.32 7.67 -1.64 7.34 -3 7 C-2.01 4.69 -1.02 2.38 0 0 Z " fill="#F8BB21" transform="translate(551,767)"/>
<path d="M0 0 C0.99 0.33 1.98 0.66 3 1 C0.69 3.31 -1.62 5.62 -4 8 C-4.66 7.67 -5.32 7.34 -6 7 C-4.02 4.69 -2.04 2.38 0 0 Z " fill="#2D2101" transform="translate(631,939)"/>
<path d="M0 0 C2.475 0.495 2.475 0.495 5 1 C5.33 1.99 5.66 2.98 6 4 C4.02 3.34 2.04 2.68 0 2 C0 1.34 0 0.68 0 0 Z " fill="#F9BA15" transform="translate(606,892)"/>
</svg>
